<svg width="31" height="31" viewBox="0 0 31 31" fill="none" xmlns="http://www.w3.org/2000/svg">
<path d="M15.774 0.508881C24.0931 0.508881 30.8375 7.22461 30.8375 15.5089C30.8375 23.7932 24.0931 30.5089 15.774 30.5089C9.04036 30.5087 3.33817 26.1087 1.40979 20.0382C2.14931 20.4543 4.89506 21.5934 5.04456 21.6407L7.0592 22.3048C7.96472 24.981 10.8844 26.4155 13.5719 25.5108C15.3248 24.9236 16.6226 23.4457 16.9762 21.6407L22.7682 17.5255C26.1773 17.203 28.6757 14.1984 28.3561 10.8097C28.0556 7.6763 25.4262 5.27011 22.2545 5.23642C18.8601 5.24146 16.0999 7.95595 16.0563 11.3253L12.5797 15.547C11.4175 15.3785 10.2356 15.6282 9.24768 16.2491L5.42249 14.5265C5.26268 14.4543 2.27089 13.3666 2.12561 13.4581C1.9754 13.5543 1.50884 13.5889 1.50842 13.7667L1.90881 20.0392C1.654 19.9648 1.47774 19.9241 1.36877 19.9044C0.941572 18.5143 0.711548 17.0383 0.711548 15.5089C0.711548 7.22475 7.45522 0.509115 15.774 0.508881ZM12.5944 18.1026C12.7202 17.8476 13.0253 17.7423 13.2867 17.8673C14.8266 18.6086 15.4758 20.447 14.7301 21.9825C14.3717 22.7189 13.7372 23.2823 12.9576 23.5518C12.6188 23.6625 12.2749 23.7198 11.9215 23.7198C11.4568 23.7198 10.997 23.6142 10.5807 23.4122C10.324 23.287 10.2175 22.9837 10.3434 22.7237C10.4693 22.4687 10.7743 22.3623 11.0358 22.4874C12.0478 23.0072 13.297 22.6174 13.8199 21.6065C14.3426 20.5959 13.9508 19.3589 12.9342 18.839C12.9003 18.8197 12.8656 18.8055 12.8317 18.7911C12.5752 18.6659 12.4686 18.3624 12.5944 18.1026ZM22.2555 8.3165C23.967 8.31669 25.354 9.69633 25.3541 11.3976C25.3539 13.0987 23.9669 14.4774 22.2555 14.4776C20.5439 14.4776 19.1561 13.0988 19.1559 11.3976C19.156 9.69621 20.5438 8.3165 22.2555 8.3165ZM22.2555 9.34189C21.1136 9.34199 20.1882 10.2625 20.1881 11.3976C20.1883 12.5325 21.1137 13.4521 22.2555 13.4522C23.3974 13.4522 24.3237 12.5325 24.3239 11.3976C24.3238 10.2625 23.3974 9.34192 22.2555 9.34189Z" fill="#FFB548"/>
</svg>
