<svg width="20" height="19" viewBox="0 0 20 19" fill="none" xmlns="http://www.w3.org/2000/svg">
<path d="M19.4429 13.4419L16.8892 15.9468H10.5063L7.95264 18.6616H5.61279V14.9028H0.293457V2.79346L2.42139 0.496582H19.4429V13.4419ZM3.48486 2.16748C3.25086 2.16748 3.05914 2.35485 3.05908 2.58447V12.8149C3.05908 13.0446 3.25082 13.2329 3.48486 13.2329H6.88916V15.1118C6.88916 15.2684 6.97407 15.4098 7.11768 15.4829C7.18151 15.5142 7.24579 15.5298 7.31494 15.5298C7.39995 15.5297 7.48513 15.5035 7.5542 15.4565L10.8521 13.2329H14.7612C14.8729 13.2329 14.9852 13.1911 15.0649 13.1128L17.4048 10.8159C17.4845 10.7377 17.5277 10.6337 17.5278 10.519V2.58447C17.5278 2.3549 17.336 2.16757 17.1021 2.16748H3.48486Z" fill="white"/>
<path d="M13.2721 9.57915V5.40332H11.57V9.57915H13.2721ZM9.01683 9.57915V5.40332H7.3147V9.57915H9.01683Z" fill="white"/>
</svg>
