<svg width="31" height="31" viewBox="0 0 31 31" fill="none" xmlns="http://www.w3.org/2000/svg">
<path d="M10.5512 3.15843C12.1355 3.77965 13.6669 4.60012 15.1103 5.60227C15.2746 5.71362 15.4623 5.77222 15.6501 5.77222C15.8379 5.77222 16.0256 5.71362 16.1899 5.60227C17.6333 4.60012 19.1647 3.77379 20.749 3.15257C21.1069 3.01192 21.3474 2.66029 21.3416 2.27349C21.3416 1.8867 21.101 1.54093 20.7372 1.40614C17.5688 0.204729 13.7314 0.204729 10.5688 1.40614C10.2109 1.54093 9.96448 1.89256 9.96448 2.27349C9.96448 2.65443 10.1874 3.01778 10.5512 3.15843Z" fill="#FFB548"/>
<path d="M24.1586 3.16374C23.8593 2.95862 23.4779 2.94104 23.1552 3.12271C21.4008 4.13072 19.7051 5.28524 18.1033 6.55698C17.892 6.72693 17.763 6.97893 17.7512 7.24852C17.7395 7.5181 17.8451 7.78183 18.0387 7.96936C21.3597 11.1282 25.9599 20.8156 27.016 25.2696C24.7277 21.4017 19.623 12.3003 16.2843 9.18835C15.9264 8.8543 15.3631 8.8543 15.0052 9.18835C11.6607 12.3003 6.57358 21.4075 4.28524 25.2813C5.34139 20.8273 9.9298 11.1282 13.2508 7.96936C13.4503 7.78183 13.5559 7.5181 13.5442 7.24852C13.5325 6.97893 13.4034 6.72693 13.1921 6.55698C11.5903 5.28524 9.88873 4.13072 8.14021 3.12271C7.82923 2.94104 7.4361 2.95862 7.13686 3.16374C3.05893 5.97092 0.623901 10.5832 0.623901 15.506C0.623901 19.1043 1.92063 22.5738 4.28524 25.2813C7.11339 28.5984 11.25 30.5089 15.6448 30.5089C20.0396 30.5089 24.182 28.6042 27.016 25.2755C29.3689 22.5796 30.6656 19.1102 30.6656 15.506C30.6656 10.5832 28.2306 5.97092 24.1586 3.16374Z" fill="#FFB548"/>
</svg>
